<svg xmlns="http://www.w3.org/2000/svg" version="1.1" xmlns:xlink="http://www.w3.org/1999/xlink" xmlns:svgjs="http://svgjs.com/svgjs" width="1000" height="300" preserveAspectRatio="none" viewBox="0 0 1000 300"><g mask="url(&quot;#SvgjsMask1018&quot;)" fill="none"><rect width="1000" height="300" x="0" y="0" fill="rgba(255, 255, 255, 1)"></rect><path d="M1000.0000000000002 300L0 300 L0 171.02Q43.16 164.18, 50 207.34Q66.02 140.02, 133.33333333333334 156.04Q164.57 137.27, 183.33333333333334 168.51Q249.34 151.18, 266.6666666666667 217.19Q274.95 142.14, 350 150.42Q395.89 146.31, 400 192.2Q427.06 135.93, 483.33333333333337 162.99Q514.95 144.61, 533.3333333333334 176.22Q594.43 153.98, 616.6666666666667 215.08Q635.42 183.84, 666.6666666666667 202.59Q685.39 137.98, 750.0000000000001 156.7Q797.18 120.55, 833.3333333333335 167.73Q887.6 138.66, 916.6666666666669 192.93Q969.2 162.13, 1000.0000000000002 214.66z" fill="rgba(198, 194, 192, 1)"></path><path d="M1066.6666666666667 300L0 300 L0 207.75Q55.9 213.66, 50 269.56Q63.99 233.55, 100 247.54Q135.91 200.12, 183.33333333333334 236.03Q240.67 210.03, 266.6666666666667 267.37Q299.81 217.18, 350 250.32Q385.7 202.68, 433.33333333333337 238.38Q456.46 178.17, 516.6666666666667 201.29Q547.18 181.8, 566.6666666666667 212.31Q622.61 184.92, 650.0000000000001 240.87Q683.44 224.31, 700.0000000000001 257.75Q708.4 216.14, 750.0000000000001 224.54Q767.13 191.67, 800.0000000000001 208.8Q862.42 187.89, 883.3333333333335 250.31Q900.49 217.47, 933.3333333333335 234.62Q941.44 192.73, 983.3333333333335 200.83Q1035.14 169.3, 1066.6666666666667 221.11z" fill="rgba(218, 90, 58, 1)"></path><path d="M1033.3333333333335 300L0 300 L0 271.39Q44.4 265.79, 50 310.19Q67.05 243.9, 133.33333333333334 260.95Q189.27 233.55, 216.66666666666669 289.49Q252.2 241.69, 300 277.22Q338.39 265.62, 350 304.01Q366.64 270.65, 400 287.29Q423.88 227.83, 483.33333333333337 251.71Q518.7 237.07, 533.3333333333334 272.44Q580.8 269.9, 583.3333333333334 317.37Q619.45 270.16, 666.6666666666667 306.28Q676.82 266.43, 716.6666666666667 276.59Q747.36 257.28, 766.6666666666667 287.97Q800.03 271.33, 816.6666666666667 304.69Q836.07 240.76, 900.0000000000001 260.16Q933.92 244.08, 950.0000000000001 277.99Q1006.66 251.31, 1033.3333333333335 307.97z" fill="rgba(119, 51, 34, 1)"></path></g><defs><mask id="SvgjsMask1018"><rect width="1000" height="300" fill="#ffffff"></rect></mask></defs></svg>