<svg xmlns="http://www.w3.org/2000/svg" version="1.1" xmlns:xlink="http://www.w3.org/1999/xlink" xmlns:svgjs="http://svgjs.com/svgjs" width="1920" height="560" preserveAspectRatio="none" viewBox="0 0 1920 560"><g mask="url(&quot;#SvgjsMask1077&quot;)" fill="none"><rect width="1920" height="560" x="0" y="0" fill="rgba(75, 68, 83, 1)"></rect><path d="M0,708.574C128.841,688.094,205.804,561.415,313.211,487.365C416.158,416.39,548.668,386.242,618.238,282.34C692.886,170.853,704.689,32.39,707.663,-101.747C711.099,-256.695,739.715,-435.908,636.731,-551.731C533.749,-667.552,352.829,-665.301,198.137,-674.793C68.461,-682.75,-48.69,-624.081,-176.657,-601.639C-325.151,-575.597,-503.643,-634.679,-614.319,-532.31C-724.522,-430.379,-706.946,-252.775,-715.845,-102.923C-724.103,36.132,-723.453,177.264,-663.935,303.209C-604.86,428.217,-502.491,526.218,-384.483,598.267C-268.333,669.182,-134.4,729.937,0,708.574" fill="#312c36"></path><path d="M1920 1164.129C2085.323 1209.5720000000001 2252.1059999999998 1393.1799999999998 2402.253 1310.4 2548.502 1229.769 2454.033 987.413 2519.326 833.703 2581.931 686.323 2779.452 597.341 2773.1130000000003 437.341 2766.825 278.65 2602.873 177.65499999999997 2488.949 67.00299999999999 2384.054-34.87900000000002 2282.375-161.558 2137.3360000000002-180.178 1996.074-198.313 1886.92-56.24400000000003 1747.285-28.21199999999999 1587.0140000000001 3.961999999999989 1389.46-114.202 1267.345-5.52800000000002 1148.682 100.07400000000001 1214.321 298.416 1202.2759999999998 456.807 1191.123 603.474 1123.146 763.293 1199.31 889.1279999999999 1275.1390000000001 1014.4100000000001 1445.728 1032.876 1582.549 1085.0839999999998 1692.718 1127.1219999999998 1806.3 1132.876 1920 1164.129" fill="#655c70"></path></g><defs><mask id="SvgjsMask1077"><rect width="1920" height="560" fill="#ffffff"></rect></mask></defs></svg>