<svg xmlns="http://www.w3.org/2000/svg" version="1.1" xmlns:xlink="http://www.w3.org/1999/xlink" xmlns:svgjs="http://svgjs.com/svgjs" width="1440" height="560" preserveAspectRatio="none" viewBox="0 0 1440 560"><g mask="url(&quot;#SvgjsMask1184&quot;)" fill="none"><rect width="1440" height="560" x="0" y="0" fill="rgba(255, 255, 255, 1)"></rect><path d="M 0,99 C 22.2,128.4 66.6,261.2 111,246 C 155.4,230.8 177.6,17.6 222,23 C 266.4,28.4 288.6,271.6 333,273 C 377.4,274.4 399.6,29.2 444,30 C 488.4,30.8 510.6,280 555,277 C 599.4,274 621.6,33.6 666,15 C 710.4,-3.6 732.6,169 777,184 C 821.4,199 843.6,78.2 888,90 C 932.4,101.8 954.6,241.2 999,243 C 1043.4,244.8 1065.6,112.6 1110,99 C 1154.4,85.4 1176.6,176.6 1221,175 C 1265.4,173.4 1288.2,82.6 1332,91 C 1375.8,99.4 1418.4,191.8 1440,217L1440 560L0 560z" fill="rgba(252, 255, 255, 1)"></path><path d="M 0,384 C 144,396 432,455 720,444 C 1008,433 1296,352 1440,329L1440 560L0 560z" fill="rgba(0, 0, 0, 1)"></path></g><defs><mask id="SvgjsMask1184"><rect width="1440" height="560" fill="#ffffff"></rect></mask></defs></svg>